<svg width="40" height="40" viewBox="0 0 40 40" fill="none" xmlns="http://www.w3.org/2000/svg">
<path d="M36.3205 24.98L33.8518 20.7018C33.8038 20.6186 33.7348 20.5495 33.6517 20.5015C33.5686 20.4534 33.4742 20.4281 33.3782 20.4281C33.2822 20.4281 33.1878 20.4534 33.1047 20.5015C33.0215 20.5495 32.9525 20.6186 32.9046 20.7018L30.433 24.98C30.3851 25.063 30.3599 25.1573 30.3599 25.2532C30.36 25.3491 30.3852 25.4433 30.4331 25.5264C30.4811 25.6095 30.55 25.6785 30.633 25.7265C30.7161 25.7745 30.8102 25.7998 30.9062 25.8H31.8071C31.3587 28.2509 29.1102 30.3406 25.6649 31.4643C25.1126 31.639 24.5145 31.596 23.9929 31.3443C23.4713 31.0925 23.0655 30.651 22.8587 30.11C22.2875 28.7236 21.9802 27.2428 21.9524 25.7437V16.0156H28.9837C29.0555 16.0157 29.1267 16.0016 29.1931 15.9741C29.2596 15.9467 29.3199 15.9064 29.3708 15.8556C29.4216 15.8048 29.4619 15.7445 29.4895 15.6781C29.517 15.6117 29.5312 15.5406 29.5312 15.4687V12.6562C29.5312 12.5112 29.4735 12.3721 29.371 12.2695C29.2684 12.1669 29.1293 12.1093 28.9843 12.1093H21.953V7.57152C22.5321 7.15774 22.9648 6.57076 23.1887 5.89521C23.4126 5.21967 23.4162 4.49046 23.1989 3.81274C22.9817 3.13502 22.5548 2.54381 21.9798 2.12436C21.4049 1.7049 20.7116 1.47888 19.9999 1.47888C19.2882 1.47888 18.5949 1.7049 18.02 2.12436C17.445 2.54381 17.0181 3.13502 16.8009 3.81274C16.5836 4.49046 16.5872 5.21967 16.8111 5.89521C17.0351 6.57076 17.4677 7.15774 18.0468 7.57152V12.1093H11.0155C10.8705 12.1093 10.7314 12.1669 10.6288 12.2695C10.5263 12.3721 10.4687 12.5112 10.4687 12.6562V15.4687C10.4687 15.6137 10.5263 15.7528 10.6288 15.8554C10.7314 15.958 10.8705 16.0156 11.0155 16.0156H18.0468V25.7437C18.0191 27.2429 17.7118 28.7238 17.1405 30.1103C16.9334 30.6509 16.5277 31.0921 16.0063 31.3438C15.4849 31.5955 14.8871 31.6387 14.3349 31.4646C10.8896 30.3406 8.64115 28.25 8.19272 25.8H9.09365C9.18964 25.7999 9.28392 25.7746 9.36703 25.7266C9.45014 25.6786 9.51916 25.6096 9.56713 25.5264C9.61511 25.4433 9.64037 25.349 9.64036 25.253C9.64035 25.1571 9.61508 25.0628 9.56709 24.9796L7.09553 20.7015C7.04759 20.6183 6.97858 20.5492 6.89544 20.5011C6.8123 20.4531 6.71796 20.4278 6.62193 20.4278C6.52591 20.4278 6.43157 20.4531 6.34843 20.5011C6.26529 20.5492 6.19628 20.6183 6.14834 20.7015L3.67959 24.9796C3.6316 25.0628 3.60633 25.1571 3.60632 25.253C3.60632 25.349 3.63157 25.4433 3.67955 25.5264C3.72753 25.6096 3.79654 25.6786 3.87965 25.7266C3.96276 25.7746 4.05705 25.7999 4.15303 25.8H5.19084C5.74272 30.9209 10.8137 35.3965 17.2602 36.3778L19.6477 38.3871C19.7463 38.4701 19.8711 38.5155 19.9999 38.5155C20.1288 38.5155 20.2535 38.4701 20.3521 38.3871L22.7396 36.3778C29.1862 35.3965 34.2571 30.9209 34.809 25.8H35.8468C35.9427 25.7999 36.037 25.7747 36.1201 25.7267C36.2032 25.6787 36.2723 25.6097 36.3203 25.5267C36.3683 25.4436 36.3936 25.3493 36.3936 25.2533C36.3937 25.1574 36.3685 25.0631 36.3205 24.98ZM19.9999 2.57808C20.448 2.57808 20.886 2.71095 21.2586 2.9599C21.6312 3.20885 21.9216 3.5627 22.0931 3.97669C22.2645 4.39067 22.3094 4.84622 22.222 5.2857C22.1346 5.72519 21.9188 6.12889 21.6019 6.44574C21.2851 6.7626 20.8814 6.97837 20.4419 7.06579C20.0024 7.15321 19.5469 7.10835 19.1329 6.93687C18.7189 6.76539 18.3651 6.475 18.1161 6.10242C17.8672 5.72984 17.7343 5.2918 17.7343 4.8437C17.7349 4.24302 17.9739 3.66714 18.3986 3.2424C18.8233 2.81765 19.3992 2.57874 19.9999 2.57808ZM19.1405 8.08745C19.7031 8.24169 20.2967 8.24169 20.8593 8.08745V12.1093H19.1405V8.08745ZM11.5624 13.2031H28.4374V14.9218H11.5624V13.2031ZM34.303 24.7062C34.1624 24.7061 34.0271 24.7603 33.9253 24.8573C33.8235 24.9544 33.7631 25.087 33.7565 25.2275C33.5277 30.0896 28.6577 34.4278 22.4283 35.3181C22.3272 35.3325 22.2321 35.3751 22.154 35.4409L19.9999 37.2537L17.8458 35.4412C17.7677 35.3754 17.6726 35.3328 17.5715 35.3184C11.3421 34.4281 6.47209 30.09 6.24334 25.2278C6.23683 25.0872 6.17639 24.9546 6.0746 24.8574C5.9728 24.7603 5.83748 24.7061 5.69678 24.7062H5.0999L6.62209 22.0687L8.14584 24.7062H7.5749C7.50008 24.7062 7.42605 24.7215 7.35739 24.7512C7.28873 24.781 7.22691 24.8245 7.17576 24.8791C7.12461 24.9337 7.08521 24.9983 7.06002 25.0687C7.03482 25.1392 7.02436 25.214 7.02928 25.2887C7.23522 28.4512 9.83959 31.1487 13.9962 32.5043C14.8136 32.765 15.6998 32.7036 16.4735 32.3327C17.2472 31.9619 17.8501 31.3095 18.159 30.509C18.7804 28.9957 19.1133 27.3794 19.1405 25.7437V16.0156H20.8593V25.7437C20.8865 27.3792 21.2193 28.9952 21.8405 30.5084C22.1492 31.3092 22.7521 31.9618 23.526 32.3328C24.2999 32.7039 25.1863 32.7652 26.004 32.5043C30.1602 31.1487 32.7646 28.4512 32.9705 25.2887C32.9755 25.214 32.965 25.1392 32.9398 25.0687C32.9146 24.9983 32.8752 24.9337 32.824 24.8791C32.7729 24.8245 32.7111 24.781 32.6424 24.7512C32.5738 24.7215 32.4997 24.7062 32.4249 24.7062H31.854L33.3777 22.0687L34.8999 24.7062H34.303Z" fill="white"/>
<path d="M21.1139 30.7956C21.0877 30.7288 21.0486 30.6678 20.9988 30.6161C20.949 30.5643 20.8895 30.523 20.8237 30.4942C20.6908 30.4362 20.5403 30.4334 20.4053 30.4864C20.2704 30.5393 20.162 30.6438 20.104 30.7766C20.046 30.9095 20.0432 31.06 20.0961 31.195C20.3106 31.7421 20.6157 32.2492 20.9986 32.695C21.0931 32.8051 21.2274 32.8731 21.372 32.8842C21.5167 32.8953 21.6598 32.8485 21.7699 32.754C21.88 32.6596 21.9481 32.5253 21.9591 32.3806C21.9702 32.236 21.9234 32.0929 21.8289 31.9828C21.5255 31.6301 21.2838 31.2287 21.1139 30.7956Z" fill="white"/>
<path d="M20 6.32812C20.2936 6.32812 20.5806 6.24107 20.8247 6.07796C21.0688 5.91486 21.259 5.68303 21.3714 5.41179C21.4837 5.14056 21.5131 4.8421 21.4559 4.55416C21.3986 4.26622 21.2572 4.00173 21.0496 3.79414C20.842 3.58655 20.5775 3.44517 20.2896 3.3879C20.0017 3.33062 19.7032 3.36002 19.432 3.47237C19.1607 3.58472 18.9289 3.77497 18.7658 4.01908C18.6027 4.26318 18.5156 4.55017 18.5156 4.84375C18.5161 5.23728 18.6727 5.61455 18.9509 5.89281C19.2292 6.17108 19.6065 6.32763 20 6.32812ZM20 4.45312C20.0773 4.45312 20.1528 4.47603 20.217 4.51896C20.2813 4.56188 20.3313 4.62289 20.3609 4.69426C20.3905 4.76564 20.3982 4.84418 20.3831 4.91996C20.3681 4.99573 20.3308 5.06533 20.2762 5.11996C20.2216 5.17459 20.152 5.2118 20.0762 5.22687C20.0004 5.24194 19.9219 5.2342 19.8505 5.20464C19.7791 5.17507 19.7181 5.12501 19.6752 5.06077C19.6323 4.99653 19.6094 4.92101 19.6094 4.84375C19.6095 4.7402 19.6508 4.64094 19.724 4.56772C19.7972 4.4945 19.8965 4.45329 20 4.45312Z" fill="white"/>
</svg>
